{"title":"H.P. Lovecraft's The Dark Sleep (2012) DVDRip","uid":8393486,"size":1295460985,"categoryP":"video","categoryS":"movies","magnet":"?xt=urn:btih:d6e341a7b2fced4b8945b3caad17008fcc4b5602&amp;dn=H.P.+Lovecraft%27s+The+Dark+Sleep+%282012%29+DVDRip&amp;tr=udp%3A%2F%2Ftracker.openbittorrent.com%3A80&amp;tr=udp%3A%2F%2Fopen.demonii.com%3A1337&amp;tr=udp%3A%2F%2Ftracker.coppersurfer.tk%3A6969&amp;tr=udp%3A%2F%2Fexodus.desync.com%3A6969","seeders":1,"leechers":0,"uploader":"RadioResearch","files":3,"time":1366500145,"description":"*******************************************************************************\n                 H.P. Lovecraft's The Dark Sleep (2012) DVDRip\n*******************************************************************************\n\n-------------------------------------------------------------------------------\n                              General Information\n-------------------------------------------------------------------------------\nType.................: Movie\n\n\n\nVideo Format.........: AVI\nVideo Bitrate........: 2143\nResolution...........: 852.480\nColor................: 8 bit\nFPS..................: 23.976\nSource...............: DVD 16x9\nOriginal Format......: NTSC\nGenre................: Horror\nIMDb Rating..........: Not Yet Rated\nMovie Information....: http://www.imdb.com/title/tt2118694/\n\n-------------------------------------------------------------------------------\n                               Post Information\n-------------------------------------------------------------------------------\nPosted by............: RadioResearch\nPosted on............: 4/20/2013\n\n-------------------------------------------------------------------------------\n                                 Release Notes\n-------------------------------------------------------------------------------\nSEEDBOX SUPPORTED!!\n\nThe Dark Sleep is a new horror film depicting a nightmarish journey into another \ndimension when a young woman discovers the remnants of an ancient cult beneath \nher house. The Dark Sleep features amazing stop-motion animation special effects \nin the Ray Harryhausen tradition and writer/director Brett Piper's visual flair \nbrings this adaptation of H.P. Lovecraft's DREAMS IN THE WITCH HOUSE to vibrant \nfrightful life. \n\nThe film looks interesting, if not a little bit schlocky.  Perfect for a pizza \nand beer night in front of the TV.\n\nEnjoy!\nRadioResearch\n\nGeneral\nComplete name                            : G:H.P. Lovecraft's The Dark Sleep \n(2012) DVDRipTitle 03.avi\nFormat                                   : AVI\nFormat/Info                              : Audio Video Interleave\nFormat profile                           : OpenDML\nFile size                                : 1.21 GiB\nDuration                                 : 1h 20mn\nOverall bit rate mode                    : Variable\nOverall bit rate                         : 2 143 Kbps\nWriting application                      : Lavf51.12.1\n\nVideo\nID                                       : 0\nFormat                                   : AVC\nFormat/Info                              : Advanced Video Codec\nFormat profile                           : &lt;a class=&quot;__cf_email__&quot; href=&quot;/cdn-cgi/l/email-protection&quot; data-cfemail=&quot;aeeccfddcbc2c7c0cbeee29d809e&quot;&gt;[email&amp;#160;protected]&lt;/a&gt;&lt;script cf-hash='f9e31' type=&quot;text/javascript&quot;&gt;\n/* &lt;![CDATA[ */!function(){try{var t=&quot;currentScript&quot;in document?document.currentScript:function(){for(var t=document.getElementsByTagName(&quot;script&quot;),e=t.length;e--;)if(t[e].getAttribute(&quot;cf-hash&quot;))return t[e]}();if(t&amp;&amp;t.previousSibling){var e,r,n,i,c=t.previousSibling,a=c.getAttribute(&quot;data-cfemail&quot;);if(a){for(e=&quot;&quot;,r=parseInt(a.substr(0,2),16),n=2;a.length-n;n+=2)i=parseInt(a.substr(n,2),16)^r,e+=String.fromCharCode(i);e=document.createTextNode(e),c.parentNode.replaceChild(e,c)}}}catch(u){}}();/* ]]&gt; */&lt;/script&gt;\nFormat settings, CABAC                   : No\nFormat settings, ReFrames                : 1 frame\nFormat settings, GOP                     : M=1, N=12\nCodec ID                                 : H264\nDuration                                 : 1h 20mn\nBit rate mode                            : Variable\nBit rate                                 : 2 001 Kbps\nMaximum bit rate                         : 3 000 Kbps\nWidth                                    : 852 pixels\nHeight                                   : 480 pixels\nDisplay aspect ratio                     : 16:9\nFrame rate                               : 23.976 fps\nOriginal frame rate                      : 24.000 fps\nColor space                              : YUV\nChroma subsampling                       : 4:2:0\nBit depth                                : 8 bits\nScan type                                : Progressive\nBits/(Pixel*Frame)                       : 0.204\nStream size                              : 1.13 GiB (93%)\n\nAudio\nID                                       : 1\nFormat                                   : MPEG Audio\nFormat version                           : Version 1\nFormat profile                           : Layer 3\nMode                                     : Joint stereo\nMode extension                           : MS Stereo\nCodec ID                                 : 55\nCodec ID/Hint                            : MP3\nDuration                                 : 1h 20mn\nBit rate mode                            : Constant\nBit rate                                 : 128 Kbps\nChannel(s)                               : 2 channels\nSampling rate                            : 44.1 KHz\nCompression mode                         : Lossy\nStream size                              : 73.8 MiB (6%)\nAlignment                                : Aligned on interleaves\nInterleave, duration                     : 26 ms (0.63 video frame)\nWriting library                          : LAME3.97\n\n\n\n\n-------------------------------------------------------------------------------\nGenerated with Cool NFO Creator - http://fly.to/coolbeans\n-------------------------------------------------------------------------------\n","torrent":{"xt":"urn:btih:d6e341a7b2fced4b8945b3caad17008fcc4b5602","amp;dn":"H.P.+Lovecraft%27s+The+Dark+Sleep+%282012%29+DVDRip","amp;tr":["udp%3A%2F%2Ftracker.openbittorrent.com%3A80","udp%3A%2F%2Fopen.demonii.com%3A1337","udp%3A%2F%2Ftracker.coppersurfer.tk%3A6969","udp%3A%2F%2Fexodus.desync.com%3A6969"],"infoHash":"d6e341a7b2fced4b8945b3caad17008fcc4b5602","infoHashBuffer":{"type":"Buffer","data":[214,227,65,167,178,252,237,75,137,69,179,202,173,23,0,143,204,75,86,2]},"announce":[],"urlList":[]}}